<svg width="88" height="88" viewBox="0 0 88 88" fill="none" xmlns="http://www.w3.org/2000/svg">
<path id="Vector" d="M15.1013 0.0953674C7.09107 0.0953674 0.597473 6.58896 0.597473 14.5992V72.6144C0.597473 80.6249 7.09107 87.1182 15.1013 87.1182H73.1165C81.127 87.1182 87.6203 80.6249 87.6203 72.6144V14.5992C87.6203 6.58896 81.127 0.0953674 73.1165 0.0953674H15.1013ZM50.5602 63.2111C54.0348 66.0118 57.509 67.3945 60.9836 67.3592C63.1108 67.3592 64.7415 66.969 65.8762 66.1892C66.9751 65.4447 67.5248 64.3811 67.5248 62.9984C67.5248 61.5804 66.9751 60.3746 65.8762 59.3821C64.7415 58.3896 62.5969 57.3965 59.4414 56.404C55.6476 55.3051 52.7227 53.8866 50.6666 52.1495C48.6457 50.4125 47.6174 47.9836 47.5821 44.8638C47.5821 41.921 48.8584 39.4573 51.4111 37.4717C53.8927 35.4861 57.0661 34.4936 60.9304 34.4936C66.3195 34.4936 70.6446 35.8052 73.9065 38.4289L70.1838 44.2256C68.8722 43.1973 67.3653 42.4528 65.6635 41.992C63.9617 41.4602 62.4374 41.1943 61.09 41.1943C59.2465 41.1943 57.7749 41.5313 56.676 42.2048C55.5771 42.8782 55.0274 43.7649 55.0274 44.8638C55.0274 46.0691 55.7008 47.0974 57.0482 47.9483C58.3956 48.7639 60.6998 49.6679 63.9617 50.6605C67.8971 51.8305 70.6978 53.3906 72.3643 55.3404C74.0307 57.2902 74.8637 59.7723 74.8637 62.7857C74.8637 65.8701 73.6759 68.5292 71.3006 70.7628C68.9607 72.9611 65.5571 74.1131 61.09 74.2195C55.2401 74.2195 50.3475 72.4645 46.4121 68.9546L50.5602 63.2111ZM23.8231 66.2956C24.9577 67.0048 26.3226 67.3592 27.9181 67.3592C29.5844 67.3592 30.9671 66.8806 32.0661 65.9233C33.1652 64.9308 33.7147 63.2111 33.7147 60.7648V35.1317H40.8944V62.1475C40.788 66.3309 39.5823 69.3448 37.2781 71.1882C35.966 72.2871 34.5301 73.0674 32.9702 73.5281C31.4103 73.9889 29.9035 74.2195 28.4499 74.2195C25.7908 74.2195 23.4332 73.7588 21.3768 72.8368C19.1787 71.8443 17.3351 70.0893 15.8461 67.5719L20.845 63.477C21.7668 64.7181 22.7595 65.6574 23.8231 66.2956Z" fill="#003084"/>
</svg>
